<mxfile host="app.diagrams.net" modified="2024-04-30T08:17:49.946Z" agent="Mozilla/5.0 (Windows NT 10.0; Win64; x64) AppleWebKit/537.36 (KHTML, like Gecko) Chrome/124.0.0.0 Safari/537.36" etag="9ocAhZN-UZVKudCBqKGE" version="24.3.1" type="github" pages="3">
  <diagram name="Complete" id="VDmkInQgDxEiEUcJwZt0">
    <mxGraphModel dx="2501" dy="738" grid="1" gridSize="10" guides="1" tooltips="1" connect="1" arrows="1" fold="1" page="1" pageScale="1" pageWidth="827" pageHeight="1169" math="0" shadow="0">
      <root>
        <mxCell id="0" />
        <mxCell id="1" parent="0" />
        <mxCell id="pOMdyjoe9ijnXIdYbif0-1" style="edgeStyle=orthogonalEdgeStyle;rounded=0;orthogonalLoop=1;jettySize=auto;html=1;entryX=1;entryY=0.5;entryDx=0;entryDy=0;exitX=0.5;exitY=1;exitDx=0;exitDy=0;dashed=1;dashPattern=12 12;" parent="1" source="pOMdyjoe9ijnXIdYbif0-59" target="pOMdyjoe9ijnXIdYbif0-50" edge="1">
          <mxGeometry relative="1" as="geometry" />
        </mxCell>
        <mxCell id="pOMdyjoe9ijnXIdYbif0-2" value="" style="verticalLabelPosition=bottom;verticalAlign=top;html=1;shape=mxgraph.basic.rect;fillColor2=none;strokeWidth=2;size=20;indent=5;fillColor=none;strokeColor=#9673a6;dashed=1;perimeterSpacing=0;shadow=0;" parent="1" vertex="1">
          <mxGeometry y="140" width="830" height="340" as="geometry" />
        </mxCell>
        <UserObject label="" tooltip="KPI Extraction Microservice" id="pOMdyjoe9ijnXIdYbif0-3">
          <mxCell style="verticalLabelPosition=bottom;verticalAlign=top;html=1;shape=mxgraph.basic.rect;fillColor2=none;strokeWidth=2;size=20;indent=5;fillColor=none;strokeColor=#9673a6;dashed=1;perimeterSpacing=0;shadow=0;" parent="1" vertex="1">
            <mxGeometry x="30" y="220" width="140" height="220" as="geometry" />
          </mxCell>
        </UserObject>
        <mxCell id="pOMdyjoe9ijnXIdYbif0-4" value="" style="verticalLabelPosition=bottom;verticalAlign=top;html=1;shape=mxgraph.basic.rect;fillColor2=none;strokeWidth=2;size=20;indent=6.67;fillColor=none;strokeColor=#9673a6;dashed=1;perimeterSpacing=0;shadow=0;" parent="1" vertex="1">
          <mxGeometry x="190" y="220" width="140" height="220" as="geometry" />
        </mxCell>
        <mxCell id="pOMdyjoe9ijnXIdYbif0-5" value="" style="verticalLabelPosition=bottom;verticalAlign=top;html=1;shape=mxgraph.basic.rect;fillColor2=none;strokeWidth=2;size=20;indent=6.67;fillColor=none;strokeColor=#9673a6;dashed=1;perimeterSpacing=0;shadow=0;" parent="1" vertex="1">
          <mxGeometry x="350" y="220" width="140" height="220" as="geometry" />
        </mxCell>
        <mxCell id="pOMdyjoe9ijnXIdYbif0-6" value="" style="edgeStyle=orthogonalEdgeStyle;rounded=0;orthogonalLoop=1;jettySize=auto;html=1;entryX=0.5;entryY=0;entryDx=0;entryDy=0;" parent="1" source="pOMdyjoe9ijnXIdYbif0-7" target="pOMdyjoe9ijnXIdYbif0-40" edge="1">
          <mxGeometry relative="1" as="geometry">
            <mxPoint x="580" y="510" as="targetPoint" />
          </mxGeometry>
        </mxCell>
        <mxCell id="pOMdyjoe9ijnXIdYbif0-7" value="" style="verticalLabelPosition=bottom;verticalAlign=top;html=1;shape=mxgraph.basic.rect;fillColor2=none;strokeWidth=2;size=20;indent=6.67;fillColor=none;strokeColor=#9673a6;dashed=1;perimeterSpacing=0;shadow=0;" parent="1" vertex="1">
          <mxGeometry x="510" y="220" width="140" height="220" as="geometry" />
        </mxCell>
        <mxCell id="pOMdyjoe9ijnXIdYbif0-8" value="" style="verticalLabelPosition=bottom;verticalAlign=top;html=1;shape=mxgraph.basic.rect;fillColor2=none;strokeWidth=2;size=20;indent=6.67;fillColor=none;strokeColor=#9673a6;dashed=1;perimeterSpacing=0;shadow=0;" parent="1" vertex="1">
          <mxGeometry x="670" y="220" width="140" height="220" as="geometry" />
        </mxCell>
        <mxCell id="pOMdyjoe9ijnXIdYbif0-9" style="edgeStyle=orthogonalEdgeStyle;rounded=0;orthogonalLoop=1;jettySize=auto;html=1;exitX=0.5;exitY=1;exitDx=0;exitDy=0;entryX=0.5;entryY=0;entryDx=0;entryDy=0;strokeColor=default;shadow=0;strokeWidth=1;" parent="1" source="pOMdyjoe9ijnXIdYbif0-15" target="pOMdyjoe9ijnXIdYbif0-17" edge="1">
          <mxGeometry relative="1" as="geometry">
            <mxPoint x="420" y="180" as="sourcePoint" />
          </mxGeometry>
        </mxCell>
        <mxCell id="pOMdyjoe9ijnXIdYbif0-10" style="edgeStyle=orthogonalEdgeStyle;rounded=0;orthogonalLoop=1;jettySize=auto;html=1;exitX=0.5;exitY=1;exitDx=0;exitDy=0;entryX=0.5;entryY=0;entryDx=0;entryDy=0;strokeColor=default;shadow=0;strokeWidth=1;" parent="1" source="pOMdyjoe9ijnXIdYbif0-15" target="pOMdyjoe9ijnXIdYbif0-19" edge="1">
          <mxGeometry relative="1" as="geometry">
            <mxPoint x="420" y="180" as="sourcePoint" />
          </mxGeometry>
        </mxCell>
        <mxCell id="pOMdyjoe9ijnXIdYbif0-11" style="edgeStyle=orthogonalEdgeStyle;rounded=0;orthogonalLoop=1;jettySize=auto;html=1;exitX=0.5;exitY=1;exitDx=0;exitDy=0;entryX=0.5;entryY=0;entryDx=0;entryDy=0;strokeColor=default;shadow=0;strokeWidth=1;" parent="1" source="pOMdyjoe9ijnXIdYbif0-15" target="pOMdyjoe9ijnXIdYbif0-21" edge="1">
          <mxGeometry relative="1" as="geometry">
            <mxPoint x="420" y="180" as="sourcePoint" />
          </mxGeometry>
        </mxCell>
        <mxCell id="pOMdyjoe9ijnXIdYbif0-12" style="edgeStyle=orthogonalEdgeStyle;rounded=0;orthogonalLoop=1;jettySize=auto;html=1;exitX=0.5;exitY=1;exitDx=0;exitDy=0;entryX=0.5;entryY=0;entryDx=0;entryDy=0;strokeColor=default;shadow=0;strokeWidth=1;" parent="1" source="pOMdyjoe9ijnXIdYbif0-15" target="pOMdyjoe9ijnXIdYbif0-23" edge="1">
          <mxGeometry relative="1" as="geometry">
            <mxPoint x="420" y="180" as="sourcePoint" />
          </mxGeometry>
        </mxCell>
        <mxCell id="pOMdyjoe9ijnXIdYbif0-13" style="edgeStyle=orthogonalEdgeStyle;rounded=0;orthogonalLoop=1;jettySize=auto;html=1;exitX=0.5;exitY=1;exitDx=0;exitDy=0;entryX=0.5;entryY=0;entryDx=0;entryDy=0;strokeColor=default;shadow=0;strokeWidth=1;" parent="1" source="pOMdyjoe9ijnXIdYbif0-15" target="pOMdyjoe9ijnXIdYbif0-25" edge="1">
          <mxGeometry relative="1" as="geometry">
            <mxPoint x="420" y="180" as="sourcePoint" />
          </mxGeometry>
        </mxCell>
        <mxCell id="pOMdyjoe9ijnXIdYbif0-14" style="edgeStyle=orthogonalEdgeStyle;rounded=0;orthogonalLoop=1;jettySize=auto;html=1;entryX=0;entryY=0.5;entryDx=0;entryDy=0;exitX=-0.022;exitY=0.411;exitDx=0;exitDy=0;exitPerimeter=0;" parent="1" source="pOMdyjoe9ijnXIdYbif0-15" target="pOMdyjoe9ijnXIdYbif0-56" edge="1">
          <mxGeometry relative="1" as="geometry">
            <mxPoint x="330" y="65.00347826086961" as="sourcePoint" />
            <mxPoint x="480" y="1104.9599999999998" as="targetPoint" />
            <Array as="points">
              <mxPoint x="-160" y="65" />
              <mxPoint x="-160" y="585" />
              <mxPoint y="585" />
              <mxPoint y="1110" />
            </Array>
          </mxGeometry>
        </mxCell>
        <mxCell id="pOMdyjoe9ijnXIdYbif0-15" value="Input Query" style="rounded=1;whiteSpace=wrap;html=1;strokeColor=default;shadow=0;strokeWidth=1;" parent="1" vertex="1">
          <mxGeometry x="360" y="40" width="120" height="60" as="geometry" />
        </mxCell>
        <mxCell id="pOMdyjoe9ijnXIdYbif0-16" style="edgeStyle=orthogonalEdgeStyle;rounded=0;orthogonalLoop=1;jettySize=auto;html=1;exitX=0.5;exitY=1;exitDx=0;exitDy=0;entryX=0.5;entryY=0;entryDx=0;entryDy=0;strokeColor=default;shadow=0;strokeWidth=1;" parent="1" source="pOMdyjoe9ijnXIdYbif0-17" target="pOMdyjoe9ijnXIdYbif0-27" edge="1">
          <mxGeometry relative="1" as="geometry" />
        </mxCell>
        <mxCell id="pOMdyjoe9ijnXIdYbif0-17" value="KPI Extraction Prompt" style="rounded=1;whiteSpace=wrap;html=1;strokeColor=default;shadow=0;strokeWidth=1;" parent="1" vertex="1">
          <mxGeometry x="40" y="260" width="120" height="60" as="geometry" />
        </mxCell>
        <mxCell id="pOMdyjoe9ijnXIdYbif0-18" value="" style="edgeStyle=orthogonalEdgeStyle;rounded=0;orthogonalLoop=1;jettySize=auto;html=1;strokeColor=default;shadow=0;strokeWidth=1;" parent="1" source="pOMdyjoe9ijnXIdYbif0-19" target="pOMdyjoe9ijnXIdYbif0-29" edge="1">
          <mxGeometry relative="1" as="geometry" />
        </mxCell>
        <mxCell id="pOMdyjoe9ijnXIdYbif0-19" value="Dimension&lt;br&gt;Extraction" style="rounded=1;whiteSpace=wrap;html=1;strokeColor=default;shadow=0;strokeWidth=1;" parent="1" vertex="1">
          <mxGeometry x="200" y="260" width="120" height="60" as="geometry" />
        </mxCell>
        <mxCell id="pOMdyjoe9ijnXIdYbif0-20" value="" style="edgeStyle=orthogonalEdgeStyle;rounded=0;orthogonalLoop=1;jettySize=auto;html=1;strokeColor=default;shadow=0;strokeWidth=1;" parent="1" source="pOMdyjoe9ijnXIdYbif0-21" target="pOMdyjoe9ijnXIdYbif0-31" edge="1">
          <mxGeometry relative="1" as="geometry" />
        </mxCell>
        <mxCell id="pOMdyjoe9ijnXIdYbif0-21" value="KPI Operator" style="rounded=1;whiteSpace=wrap;html=1;strokeColor=default;shadow=0;strokeWidth=1;" parent="1" vertex="1">
          <mxGeometry x="360" y="260" width="120" height="60" as="geometry" />
        </mxCell>
        <mxCell id="pOMdyjoe9ijnXIdYbif0-22" value="" style="edgeStyle=orthogonalEdgeStyle;rounded=0;orthogonalLoop=1;jettySize=auto;html=1;strokeColor=default;shadow=0;strokeWidth=1;" parent="1" source="pOMdyjoe9ijnXIdYbif0-23" target="pOMdyjoe9ijnXIdYbif0-32" edge="1">
          <mxGeometry relative="1" as="geometry" />
        </mxCell>
        <mxCell id="pOMdyjoe9ijnXIdYbif0-23" value="Key Operator" style="rounded=1;whiteSpace=wrap;html=1;strokeColor=default;shadow=0;strokeWidth=1;" parent="1" vertex="1">
          <mxGeometry x="520" y="260" width="120" height="60" as="geometry" />
        </mxCell>
        <mxCell id="pOMdyjoe9ijnXIdYbif0-24" value="" style="edgeStyle=orthogonalEdgeStyle;rounded=0;orthogonalLoop=1;jettySize=auto;html=1;strokeColor=default;shadow=0;strokeWidth=1;" parent="1" source="pOMdyjoe9ijnXIdYbif0-25" target="pOMdyjoe9ijnXIdYbif0-33" edge="1">
          <mxGeometry relative="1" as="geometry" />
        </mxCell>
        <mxCell id="pOMdyjoe9ijnXIdYbif0-25" value="Question Category" style="rounded=1;whiteSpace=wrap;html=1;strokeColor=default;shadow=0;strokeWidth=1;" parent="1" vertex="1">
          <mxGeometry x="680" y="260" width="120" height="60" as="geometry" />
        </mxCell>
        <mxCell id="pOMdyjoe9ijnXIdYbif0-26" style="edgeStyle=orthogonalEdgeStyle;rounded=0;orthogonalLoop=1;jettySize=auto;html=1;entryX=0.5;entryY=0;entryDx=0;entryDy=0;" parent="1" source="pOMdyjoe9ijnXIdYbif0-27" target="pOMdyjoe9ijnXIdYbif0-35" edge="1">
          <mxGeometry relative="1" as="geometry">
            <mxPoint x="160" y="540" as="targetPoint" />
            <Array as="points">
              <mxPoint x="100" y="460" />
              <mxPoint x="260" y="460" />
            </Array>
          </mxGeometry>
        </mxCell>
        <mxCell id="pOMdyjoe9ijnXIdYbif0-27" value="KPIs Extracted&lt;br&gt;KPI to Data Mapping" style="rounded=1;whiteSpace=wrap;html=1;strokeColor=default;shadow=0;strokeWidth=1;" parent="1" vertex="1">
          <mxGeometry x="40" y="350" width="120" height="60" as="geometry" />
        </mxCell>
        <mxCell id="pOMdyjoe9ijnXIdYbif0-28" style="edgeStyle=orthogonalEdgeStyle;rounded=0;orthogonalLoop=1;jettySize=auto;html=1;exitX=0.5;exitY=1;exitDx=0;exitDy=0;" parent="1" source="pOMdyjoe9ijnXIdYbif0-29" target="pOMdyjoe9ijnXIdYbif0-35" edge="1">
          <mxGeometry relative="1" as="geometry" />
        </mxCell>
        <mxCell id="pOMdyjoe9ijnXIdYbif0-29" value="Dimension - Sub dimension&amp;nbsp;&lt;div&gt;mapping&lt;/div&gt;" style="rounded=1;whiteSpace=wrap;html=1;strokeColor=default;shadow=0;strokeWidth=1;" parent="1" vertex="1">
          <mxGeometry x="200" y="350" width="120" height="60" as="geometry" />
        </mxCell>
        <mxCell id="pOMdyjoe9ijnXIdYbif0-30" style="edgeStyle=orthogonalEdgeStyle;rounded=0;orthogonalLoop=1;jettySize=auto;html=1;exitX=0.5;exitY=1;exitDx=0;exitDy=0;entryX=0.5;entryY=0;entryDx=0;entryDy=0;" parent="1" source="pOMdyjoe9ijnXIdYbif0-31" target="pOMdyjoe9ijnXIdYbif0-35" edge="1">
          <mxGeometry relative="1" as="geometry">
            <mxPoint x="250" y="570" as="targetPoint" />
            <Array as="points">
              <mxPoint x="420" y="460" />
              <mxPoint x="260" y="460" />
            </Array>
          </mxGeometry>
        </mxCell>
        <mxCell id="pOMdyjoe9ijnXIdYbif0-31" value="&lt;div&gt;KPI - Operator Mapping&lt;/div&gt;" style="rounded=1;whiteSpace=wrap;html=1;strokeColor=default;shadow=0;strokeWidth=1;" parent="1" vertex="1">
          <mxGeometry x="360" y="350" width="120" height="60" as="geometry" />
        </mxCell>
        <mxCell id="pOMdyjoe9ijnXIdYbif0-32" value="Key Operator Extracted" style="rounded=1;whiteSpace=wrap;html=1;strokeColor=default;shadow=0;strokeWidth=1;" parent="1" vertex="1">
          <mxGeometry x="520" y="350" width="120" height="60" as="geometry" />
        </mxCell>
        <mxCell id="pOMdyjoe9ijnXIdYbif0-33" value="Type of Question" style="rounded=1;whiteSpace=wrap;html=1;strokeColor=default;shadow=0;strokeWidth=1;" parent="1" vertex="1">
          <mxGeometry x="680" y="350" width="120" height="60" as="geometry" />
        </mxCell>
        <mxCell id="pOMdyjoe9ijnXIdYbif0-34" style="edgeStyle=orthogonalEdgeStyle;rounded=0;orthogonalLoop=1;jettySize=auto;html=1;entryX=0.5;entryY=0;entryDx=0;entryDy=0;" parent="1" source="pOMdyjoe9ijnXIdYbif0-35" target="pOMdyjoe9ijnXIdYbif0-40" edge="1">
          <mxGeometry relative="1" as="geometry" />
        </mxCell>
        <mxCell id="pOMdyjoe9ijnXIdYbif0-35" value="Extracted Details" style="rounded=1;whiteSpace=wrap;html=1;" parent="1" vertex="1">
          <mxGeometry x="200" y="515" width="120" height="60" as="geometry" />
        </mxCell>
        <mxCell id="pOMdyjoe9ijnXIdYbif0-36" value="&lt;h3&gt;Micro-Descioning Step&lt;/h3&gt;" style="text;html=1;align=center;verticalAlign=middle;resizable=0;points=[];autosize=1;strokeColor=none;fillColor=none;" parent="1" vertex="1">
          <mxGeometry y="130" width="180" height="60" as="geometry" />
        </mxCell>
        <mxCell id="pOMdyjoe9ijnXIdYbif0-37" value="&lt;h3&gt;Level 1 Construct&lt;/h3&gt;" style="text;html=1;align=center;verticalAlign=middle;resizable=0;points=[];autosize=1;strokeColor=none;fillColor=none;" parent="1" vertex="1">
          <mxGeometry x="-150" y="260" width="140" height="60" as="geometry" />
        </mxCell>
        <mxCell id="pOMdyjoe9ijnXIdYbif0-38" value="&lt;h3&gt;Level 2 Construct&lt;/h3&gt;" style="text;html=1;align=center;verticalAlign=middle;resizable=0;points=[];autosize=1;strokeColor=none;fillColor=none;" parent="1" vertex="1">
          <mxGeometry x="-150" y="350" width="140" height="60" as="geometry" />
        </mxCell>
        <mxCell id="pOMdyjoe9ijnXIdYbif0-39" style="edgeStyle=orthogonalEdgeStyle;rounded=0;orthogonalLoop=1;jettySize=auto;html=1;exitX=0.5;exitY=1;exitDx=0;exitDy=0;entryX=0.5;entryY=0;entryDx=0;entryDy=0;" parent="1" source="pOMdyjoe9ijnXIdYbif0-40" target="pOMdyjoe9ijnXIdYbif0-46" edge="1">
          <mxGeometry relative="1" as="geometry" />
        </mxCell>
        <mxCell id="pOMdyjoe9ijnXIdYbif0-40" value="&lt;div&gt;Operator&lt;/div&gt;" style="rounded=1;whiteSpace=wrap;html=1;" parent="1" vertex="1">
          <mxGeometry x="520" y="570" width="120" height="60" as="geometry" />
        </mxCell>
        <mxCell id="pOMdyjoe9ijnXIdYbif0-41" style="edgeStyle=orthogonalEdgeStyle;rounded=0;orthogonalLoop=1;jettySize=auto;html=1;entryX=0.5;entryY=0;entryDx=0;entryDy=0;exitX=0;exitY=0.5;exitDx=0;exitDy=0;" parent="1" source="pOMdyjoe9ijnXIdYbif0-40" target="pOMdyjoe9ijnXIdYbif0-44" edge="1">
          <mxGeometry relative="1" as="geometry">
            <mxPoint x="515" y="630" as="sourcePoint" />
          </mxGeometry>
        </mxCell>
        <mxCell id="pOMdyjoe9ijnXIdYbif0-42" style="edgeStyle=orthogonalEdgeStyle;rounded=0;orthogonalLoop=1;jettySize=auto;html=1;entryX=0.5;entryY=0;entryDx=0;entryDy=0;exitX=1;exitY=0.5;exitDx=0;exitDy=0;" parent="1" source="pOMdyjoe9ijnXIdYbif0-40" target="pOMdyjoe9ijnXIdYbif0-48" edge="1">
          <mxGeometry relative="1" as="geometry">
            <mxPoint x="520" y="580" as="sourcePoint" />
          </mxGeometry>
        </mxCell>
        <mxCell id="pOMdyjoe9ijnXIdYbif0-43" value="" style="edgeStyle=orthogonalEdgeStyle;rounded=0;orthogonalLoop=1;jettySize=auto;html=1;" parent="1" source="pOMdyjoe9ijnXIdYbif0-44" target="pOMdyjoe9ijnXIdYbif0-50" edge="1">
          <mxGeometry relative="1" as="geometry" />
        </mxCell>
        <mxCell id="pOMdyjoe9ijnXIdYbif0-44" value="Direct Formulae" style="rounded=1;whiteSpace=wrap;html=1;" parent="1" vertex="1">
          <mxGeometry x="330" y="670" width="120" height="60" as="geometry" />
        </mxCell>
        <mxCell id="pOMdyjoe9ijnXIdYbif0-45" value="" style="edgeStyle=orthogonalEdgeStyle;rounded=0;orthogonalLoop=1;jettySize=auto;html=1;" parent="1" source="pOMdyjoe9ijnXIdYbif0-46" target="pOMdyjoe9ijnXIdYbif0-52" edge="1">
          <mxGeometry relative="1" as="geometry" />
        </mxCell>
        <mxCell id="pOMdyjoe9ijnXIdYbif0-46" value="Key Driver" style="rounded=1;whiteSpace=wrap;html=1;" parent="1" vertex="1">
          <mxGeometry x="520" y="670" width="120" height="60" as="geometry" />
        </mxCell>
        <mxCell id="pOMdyjoe9ijnXIdYbif0-47" style="edgeStyle=orthogonalEdgeStyle;rounded=0;orthogonalLoop=1;jettySize=auto;html=1;entryX=0.5;entryY=0;entryDx=0;entryDy=0;" parent="1" source="pOMdyjoe9ijnXIdYbif0-48" target="pOMdyjoe9ijnXIdYbif0-52" edge="1">
          <mxGeometry relative="1" as="geometry" />
        </mxCell>
        <mxCell id="pOMdyjoe9ijnXIdYbif0-48" value="Trend" style="rounded=1;whiteSpace=wrap;html=1;" parent="1" vertex="1">
          <mxGeometry x="720" y="670" width="120" height="60" as="geometry" />
        </mxCell>
        <mxCell id="pOMdyjoe9ijnXIdYbif0-49" value="" style="edgeStyle=orthogonalEdgeStyle;rounded=0;orthogonalLoop=1;jettySize=auto;html=1;exitX=0.5;exitY=1;exitDx=0;exitDy=0;" parent="1" source="pOMdyjoe9ijnXIdYbif0-50" target="pOMdyjoe9ijnXIdYbif0-56" edge="1">
          <mxGeometry relative="1" as="geometry" />
        </mxCell>
        <mxCell id="pOMdyjoe9ijnXIdYbif0-50" value="Text to SQL Agent" style="rounded=1;whiteSpace=wrap;html=1;" parent="1" vertex="1">
          <mxGeometry x="330" y="810" width="120" height="60" as="geometry" />
        </mxCell>
        <mxCell id="pOMdyjoe9ijnXIdYbif0-51" value="" style="edgeStyle=orthogonalEdgeStyle;rounded=0;orthogonalLoop=1;jettySize=auto;html=1;" parent="1" source="pOMdyjoe9ijnXIdYbif0-52" target="pOMdyjoe9ijnXIdYbif0-54" edge="1">
          <mxGeometry relative="1" as="geometry" />
        </mxCell>
        <mxCell id="pOMdyjoe9ijnXIdYbif0-52" value="Data&amp;nbsp;&lt;div&gt;Preprocessing&lt;/div&gt;" style="rounded=1;whiteSpace=wrap;html=1;" parent="1" vertex="1">
          <mxGeometry x="620" y="800" width="120" height="60" as="geometry" />
        </mxCell>
        <mxCell id="pOMdyjoe9ijnXIdYbif0-53" style="edgeStyle=orthogonalEdgeStyle;rounded=0;orthogonalLoop=1;jettySize=auto;html=1;exitX=0.5;exitY=1;exitDx=0;exitDy=0;" parent="1" source="pOMdyjoe9ijnXIdYbif0-54" edge="1">
          <mxGeometry relative="1" as="geometry">
            <mxPoint x="570" y="1080" as="targetPoint" />
          </mxGeometry>
        </mxCell>
        <mxCell id="pOMdyjoe9ijnXIdYbif0-54" value="Python Function Agent" style="rounded=1;whiteSpace=wrap;html=1;" parent="1" vertex="1">
          <mxGeometry x="620" y="920" width="120" height="60" as="geometry" />
        </mxCell>
        <mxCell id="pOMdyjoe9ijnXIdYbif0-55" style="edgeStyle=orthogonalEdgeStyle;rounded=0;orthogonalLoop=1;jettySize=auto;html=1;exitX=0.5;exitY=1;exitDx=0;exitDy=0;entryX=0.5;entryY=0;entryDx=0;entryDy=0;" parent="1" source="pOMdyjoe9ijnXIdYbif0-56" target="pOMdyjoe9ijnXIdYbif0-57" edge="1">
          <mxGeometry relative="1" as="geometry" />
        </mxCell>
        <mxCell id="pOMdyjoe9ijnXIdYbif0-56" value="Final Output" style="rounded=1;whiteSpace=wrap;html=1;" parent="1" vertex="1">
          <mxGeometry x="510" y="1080" width="120" height="60" as="geometry" />
        </mxCell>
        <mxCell id="pOMdyjoe9ijnXIdYbif0-57" value="Output Format" style="rounded=1;whiteSpace=wrap;html=1;" parent="1" vertex="1">
          <mxGeometry x="510" y="1200" width="120" height="60" as="geometry" />
        </mxCell>
        <mxCell id="pOMdyjoe9ijnXIdYbif0-58" style="edgeStyle=orthogonalEdgeStyle;rounded=0;orthogonalLoop=1;jettySize=auto;html=1;exitX=0.5;exitY=1;exitDx=0;exitDy=0;entryX=1;entryY=0.5;entryDx=0;entryDy=0;" parent="1" source="pOMdyjoe9ijnXIdYbif0-59" target="pOMdyjoe9ijnXIdYbif0-56" edge="1">
          <mxGeometry relative="1" as="geometry" />
        </mxCell>
        <mxCell id="pOMdyjoe9ijnXIdYbif0-59" value="OpenAI Service" style="ellipse;whiteSpace=wrap;html=1;" parent="1" vertex="1">
          <mxGeometry x="990" y="470" width="160" height="150" as="geometry" />
        </mxCell>
        <mxCell id="pOMdyjoe9ijnXIdYbif0-60" style="edgeStyle=orthogonalEdgeStyle;rounded=0;orthogonalLoop=1;jettySize=auto;html=1;exitX=0.5;exitY=0;exitDx=0;exitDy=0;entryX=1.004;entryY=0.127;entryDx=0;entryDy=0;entryPerimeter=0;dashed=1;dashPattern=1 1;" parent="1" source="pOMdyjoe9ijnXIdYbif0-59" target="pOMdyjoe9ijnXIdYbif0-2" edge="1">
          <mxGeometry relative="1" as="geometry" />
        </mxCell>
        <mxCell id="pOMdyjoe9ijnXIdYbif0-71" value="What is the rolling 12 month average turnover rate of US ?" style="text;html=1;align=center;verticalAlign=middle;resizable=0;points=[];autosize=1;strokeColor=none;fillColor=none;" parent="1" vertex="1">
          <mxGeometry x="255" width="330" height="30" as="geometry" />
        </mxCell>
        <mxCell id="pOMdyjoe9ijnXIdYbif0-72" value="Turnover Rate ( TO )" style="text;html=1;align=center;verticalAlign=middle;resizable=0;points=[];autosize=1;strokeColor=none;fillColor=none;" parent="1" vertex="1">
          <mxGeometry x="35" y="480" width="130" height="30" as="geometry" />
        </mxCell>
        <mxCell id="IVOXBov6U1uUz7RGps8Z-1" style="edgeStyle=orthogonalEdgeStyle;rounded=0;orthogonalLoop=1;jettySize=auto;html=1;exitX=0.5;exitY=1;exitDx=0;exitDy=0;entryX=0.5;entryY=0;entryDx=0;entryDy=0;" parent="1" source="pOMdyjoe9ijnXIdYbif0-73" target="pOMdyjoe9ijnXIdYbif0-76" edge="1">
          <mxGeometry relative="1" as="geometry">
            <Array as="points">
              <mxPoint x="-720" y="890" />
              <mxPoint x="-610" y="890" />
            </Array>
          </mxGeometry>
        </mxCell>
        <mxCell id="pOMdyjoe9ijnXIdYbif0-73" value="Country" style="rounded=1;whiteSpace=wrap;html=1;strokeColor=default;shadow=0;strokeWidth=1;" parent="1" vertex="1">
          <mxGeometry x="-780" y="820" width="120" height="60" as="geometry" />
        </mxCell>
        <mxCell id="pOMdyjoe9ijnXIdYbif0-74" value="BG Country" style="rounded=1;whiteSpace=wrap;html=1;strokeColor=default;shadow=0;strokeWidth=1;" parent="1" vertex="1">
          <mxGeometry x="-580" y="820" width="120" height="60" as="geometry" />
        </mxCell>
        <mxCell id="pOMdyjoe9ijnXIdYbif0-75" style="edgeStyle=orthogonalEdgeStyle;rounded=0;orthogonalLoop=1;jettySize=auto;html=1;exitX=0.5;exitY=1;exitDx=0;exitDy=0;entryX=0.5;entryY=0;entryDx=0;entryDy=0;" parent="1" source="pOMdyjoe9ijnXIdYbif0-74" target="pOMdyjoe9ijnXIdYbif0-76" edge="1">
          <mxGeometry relative="1" as="geometry">
            <Array as="points">
              <mxPoint x="-520" y="890" />
              <mxPoint x="-610" y="890" />
            </Array>
          </mxGeometry>
        </mxCell>
        <mxCell id="pOMdyjoe9ijnXIdYbif0-76" value="United States" style="rounded=1;whiteSpace=wrap;html=1;strokeColor=default;shadow=0;strokeWidth=1;" parent="1" vertex="1">
          <mxGeometry x="-670" y="910" width="120" height="70" as="geometry" />
        </mxCell>
      </root>
    </mxGraphModel>
  </diagram>
  <diagram id="XYc0j-mCzIn56ThSKTvm" name="KPI Extraction">
    <mxGraphModel dx="2501" dy="738" grid="1" gridSize="10" guides="1" tooltips="1" connect="1" arrows="1" fold="1" page="1" pageScale="1" pageWidth="827" pageHeight="1169" math="0" shadow="0">
      <root>
        <mxCell id="0" />
        <mxCell id="1" parent="0" />
        <UserObject label="" tooltip="KPI Extraction Microservice" id="2SwSLH-dQ8hCMy-7tPOs-1">
          <mxCell style="verticalLabelPosition=bottom;verticalAlign=top;html=1;shape=mxgraph.basic.rect;fillColor2=none;strokeWidth=2;size=20;indent=5;fillColor=none;strokeColor=#9673a6;dashed=1;perimeterSpacing=0;shadow=0;" parent="1" vertex="1">
            <mxGeometry x="-340" y="320" width="140" height="220" as="geometry" />
          </mxCell>
        </UserObject>
        <mxCell id="2SwSLH-dQ8hCMy-7tPOs-2" style="edgeStyle=orthogonalEdgeStyle;rounded=0;orthogonalLoop=1;jettySize=auto;html=1;exitX=0.5;exitY=1;exitDx=0;exitDy=0;entryX=0.5;entryY=0;entryDx=0;entryDy=0;strokeColor=default;shadow=0;strokeWidth=1;" parent="1" source="2SwSLH-dQ8hCMy-7tPOs-3" target="2SwSLH-dQ8hCMy-7tPOs-4" edge="1">
          <mxGeometry relative="1" as="geometry" />
        </mxCell>
        <mxCell id="2SwSLH-dQ8hCMy-7tPOs-3" value="KPI Extraction Prompt" style="rounded=1;whiteSpace=wrap;html=1;strokeColor=default;shadow=0;strokeWidth=1;" parent="1" vertex="1">
          <mxGeometry x="-330" y="360" width="120" height="60" as="geometry" />
        </mxCell>
        <mxCell id="2SwSLH-dQ8hCMy-7tPOs-4" value="KPIs Extracted&lt;br&gt;KPI to Data Mapping" style="rounded=1;whiteSpace=wrap;html=1;strokeColor=default;shadow=0;strokeWidth=1;" parent="1" vertex="1">
          <mxGeometry x="-330" y="450" width="120" height="60" as="geometry" />
        </mxCell>
        <mxCell id="2SwSLH-dQ8hCMy-7tPOs-5" value="" style="edgeStyle=orthogonalEdgeStyle;rounded=0;orthogonalLoop=1;jettySize=auto;html=1;" parent="1" source="2SwSLH-dQ8hCMy-7tPOs-6" target="2SwSLH-dQ8hCMy-7tPOs-7" edge="1">
          <mxGeometry relative="1" as="geometry" />
        </mxCell>
        <mxCell id="2SwSLH-dQ8hCMy-7tPOs-6" value="Input" style="rounded=1;whiteSpace=wrap;html=1;strokeColor=default;shadow=0;strokeWidth=1;" parent="1" vertex="1">
          <mxGeometry x="-70" y="320" width="120" height="60" as="geometry" />
        </mxCell>
        <mxCell id="2SwSLH-dQ8hCMy-7tPOs-7" value="&lt;div&gt;KPI&lt;/div&gt;Prompt" style="rounded=1;whiteSpace=wrap;html=1;strokeColor=default;shadow=0;strokeWidth=1;" parent="1" vertex="1">
          <mxGeometry x="130" y="320" width="120" height="60" as="geometry" />
        </mxCell>
        <mxCell id="2SwSLH-dQ8hCMy-7tPOs-8" value="&lt;font style=&quot;font-size: 11px;&quot;&gt;Extract KPIS from&amp;nbsp;&lt;/font&gt;&lt;div style=&quot;font-size: 11px;&quot;&gt;&lt;font style=&quot;font-size: 11px;&quot;&gt;query = {query}&lt;/font&gt;&lt;/div&gt;&lt;div style=&quot;font-size: 11px;&quot;&gt;&lt;font style=&quot;font-size: 11px;&quot;&gt;&lt;br&gt;&lt;/font&gt;&lt;/div&gt;&lt;div style=&quot;font-size: 11px;&quot;&gt;&lt;font style=&quot;font-size: 11px;&quot;&gt;these are some possible options&lt;/font&gt;&lt;/div&gt;&lt;div style=&quot;font-size: 11px;&quot;&gt;&lt;font style=&quot;font-size: 11px;&quot;&gt;&lt;br&gt;&lt;/font&gt;&lt;/div&gt;&lt;div style=&quot;font-size: 11px;&quot;&gt;&lt;font style=&quot;font-size: 11px;&quot;&gt;KPI1 = definition&lt;/font&gt;&lt;/div&gt;&lt;div style=&quot;font-size: 11px;&quot;&gt;&lt;font style=&quot;font-size: 11px;&quot;&gt;KPI2 = definition&lt;br&gt;&lt;/font&gt;&lt;/div&gt;&lt;div style=&quot;font-size: 11px;&quot;&gt;&lt;font style=&quot;font-size: 11px;&quot;&gt;..&lt;/font&gt;&lt;/div&gt;&lt;div style=&quot;font-size: 11px;&quot;&gt;&lt;font style=&quot;font-size: 11px;&quot;&gt;..&lt;/font&gt;&lt;/div&gt;&lt;div style=&quot;font-size: 11px;&quot;&gt;&lt;font style=&quot;font-size: 11px;&quot;&gt;&lt;br&gt;&lt;/font&gt;&lt;/div&gt;&lt;div style=&quot;font-size: 11px;&quot;&gt;&lt;font style=&quot;font-size: 11px;&quot;&gt;Using the above information extraction KPIS from given query&lt;/font&gt;&lt;/div&gt;&lt;div style=&quot;font-size: 11px;&quot;&gt;&lt;font style=&quot;font-size: 11px;&quot;&gt;&lt;br&gt;&lt;/font&gt;&lt;/div&gt;&lt;div style=&quot;font-size: 11px;&quot;&gt;&lt;div&gt;&lt;font style=&quot;font-size: 11px;&quot;&gt;query = {query}&lt;/font&gt;&lt;/div&gt;&lt;div&gt;&lt;font style=&quot;font-size: 11px;&quot;&gt;Answer =&amp;nbsp;&lt;/font&gt;&lt;/div&gt;&lt;/div&gt;&lt;div style=&quot;font-size: 11px;&quot;&gt;&lt;font style=&quot;font-size: 11px;&quot;&gt;&lt;br&gt;&lt;/font&gt;&lt;/div&gt;&lt;div style=&quot;font-size: 11px;&quot;&gt;&lt;br&gt;&lt;/div&gt;" style="rounded=1;whiteSpace=wrap;html=1;strokeColor=default;shadow=0;strokeWidth=1;arcSize=2;" parent="1" vertex="1">
          <mxGeometry x="25" y="410" width="330" height="330" as="geometry" />
        </mxCell>
        <mxCell id="2SwSLH-dQ8hCMy-7tPOs-9" value="" style="edgeStyle=orthogonalEdgeStyle;rounded=0;orthogonalLoop=1;jettySize=auto;html=1;exitX=1;exitY=0.5;exitDx=0;exitDy=0;" parent="1" source="2SwSLH-dQ8hCMy-7tPOs-7" edge="1">
          <mxGeometry relative="1" as="geometry">
            <mxPoint x="275" y="350" as="sourcePoint" />
            <mxPoint x="340" y="350" as="targetPoint" />
          </mxGeometry>
        </mxCell>
        <mxCell id="2SwSLH-dQ8hCMy-7tPOs-10" value="Extracted KPI" style="rounded=1;whiteSpace=wrap;html=1;strokeColor=default;shadow=0;strokeWidth=1;" parent="1" vertex="1">
          <mxGeometry x="340" y="320" width="120" height="60" as="geometry" />
        </mxCell>
      </root>
    </mxGraphModel>
  </diagram>
  <diagram id="H3UFuTxDAMYkI0k6wtgH" name="Dimension Extraction">
    <mxGraphModel dx="1969" dy="868" grid="1" gridSize="10" guides="1" tooltips="1" connect="1" arrows="1" fold="1" page="1" pageScale="1" pageWidth="827" pageHeight="1169" math="0" shadow="0">
      <root>
        <mxCell id="0" />
        <mxCell id="1" parent="0" />
        <mxCell id="0bnm-WWBfVlgTxz5dhvm-37" value="" style="rounded=0;whiteSpace=wrap;html=1;fillColor=none;" parent="1" vertex="1">
          <mxGeometry x="560" y="90" width="180" height="140" as="geometry" />
        </mxCell>
        <mxCell id="0bnm-WWBfVlgTxz5dhvm-4" value="" style="edgeStyle=orthogonalEdgeStyle;rounded=0;orthogonalLoop=1;jettySize=auto;html=1;" parent="1" source="0bnm-WWBfVlgTxz5dhvm-2" target="0bnm-WWBfVlgTxz5dhvm-3" edge="1">
          <mxGeometry relative="1" as="geometry" />
        </mxCell>
        <mxCell id="0bnm-WWBfVlgTxz5dhvm-2" value="User Input" style="ellipse;whiteSpace=wrap;html=1;aspect=fixed;" parent="1" vertex="1">
          <mxGeometry x="205" y="110" width="80" height="80" as="geometry" />
        </mxCell>
        <mxCell id="0bnm-WWBfVlgTxz5dhvm-28" value="" style="edgeStyle=orthogonalEdgeStyle;rounded=0;orthogonalLoop=1;jettySize=auto;html=1;" parent="1" source="0bnm-WWBfVlgTxz5dhvm-3" target="0bnm-WWBfVlgTxz5dhvm-27" edge="1">
          <mxGeometry relative="1" as="geometry" />
        </mxCell>
        <mxCell id="0bnm-WWBfVlgTxz5dhvm-3" value="Retrieve Examples from Vector Store" style="ellipse;whiteSpace=wrap;html=1;" parent="1" vertex="1">
          <mxGeometry x="170" y="290" width="150" height="150" as="geometry" />
        </mxCell>
        <mxCell id="0bnm-WWBfVlgTxz5dhvm-5" value="" style="sketch=0;shadow=0;dashed=0;html=1;strokeColor=none;fillColor=#505050;labelPosition=center;verticalLabelPosition=bottom;verticalAlign=top;outlineConnect=0;align=center;shape=mxgraph.office.databases.web_store;" parent="1" vertex="1">
          <mxGeometry x="600" y="110" width="110" height="110" as="geometry" />
        </mxCell>
        <mxCell id="0bnm-WWBfVlgTxz5dhvm-10" value="&lt;span style=&quot;color: rgb(0, 0, 0); font-family: Helvetica; font-size: 12px; font-style: normal; font-variant-ligatures: normal; font-variant-caps: normal; font-weight: 400; letter-spacing: normal; orphans: 2; text-align: center; text-indent: 0px; text-transform: none; widows: 2; word-spacing: 0px; -webkit-text-stroke-width: 0px; white-space: normal; background-color: rgb(251, 251, 251); text-decoration-thickness: initial; text-decoration-style: initial; text-decoration-color: initial; display: inline !important; float: none;&quot;&gt;Request and Retrieve&lt;/span&gt;" style="text;whiteSpace=wrap;html=1;" parent="1" vertex="1">
          <mxGeometry x="100" y="40" width="80" height="40" as="geometry" />
        </mxCell>
        <mxCell id="0bnm-WWBfVlgTxz5dhvm-11" value="Vector Examples" style="swimlane;fontStyle=0;childLayout=stackLayout;horizontal=1;startSize=30;horizontalStack=0;resizeParent=1;resizeParentMax=0;resizeLast=0;collapsible=1;marginBottom=0;whiteSpace=wrap;html=1;" parent="1" vertex="1">
          <mxGeometry x="380" y="240" width="570" height="210" as="geometry" />
        </mxCell>
        <mxCell id="0bnm-WWBfVlgTxz5dhvm-12" value="Generate Insights for Data &amp;amp; Analytics : {&#39;Function&#39;:&#39;Data &amp;amp; Analytics&#39;}" style="text;strokeColor=none;fillColor=none;align=left;verticalAlign=middle;spacingLeft=4;spacingRight=4;overflow=hidden;points=[[0,0.5],[1,0.5]];portConstraint=eastwest;rotatable=0;whiteSpace=wrap;html=1;" parent="0bnm-WWBfVlgTxz5dhvm-11" vertex="1">
          <mxGeometry y="30" width="570" height="30" as="geometry" />
        </mxCell>
        <mxCell id="0bnm-WWBfVlgTxz5dhvm-13" value="Generate Insights for employees working as Data Scientist. {&#39;Job_Profile&#39; ; &#39;Data Scientist }" style="text;strokeColor=none;fillColor=none;align=left;verticalAlign=middle;spacingLeft=4;spacingRight=4;overflow=hidden;points=[[0,0.5],[1,0.5]];portConstraint=eastwest;rotatable=0;whiteSpace=wrap;html=1;" parent="0bnm-WWBfVlgTxz5dhvm-11" vertex="1">
          <mxGeometry y="60" width="570" height="30" as="geometry" />
        </mxCell>
        <mxCell id="0bnm-WWBfVlgTxz5dhvm-15" value="Generate Insights for expert Data Scientist employees. {&#39;Job_Profile&#39;:&#39;Expert Data Scientist&#39;}" style="text;strokeColor=none;fillColor=none;align=left;verticalAlign=middle;spacingLeft=4;spacingRight=4;overflow=hidden;points=[[0,0.5],[1,0.5]];portConstraint=eastwest;rotatable=0;whiteSpace=wrap;html=1;" parent="0bnm-WWBfVlgTxz5dhvm-11" vertex="1">
          <mxGeometry y="90" width="570" height="30" as="geometry" />
        </mxCell>
        <mxCell id="0bnm-WWBfVlgTxz5dhvm-16" value="Generate Insights for Data Analytics &amp;amp; Insights employees. {&#39;Job_Family&#39; :&#39;Data Analytics &amp;amp; Insights&#39;}" style="text;strokeColor=none;fillColor=none;align=left;verticalAlign=middle;spacingLeft=4;spacingRight=4;overflow=hidden;points=[[0,0.5],[1,0.5]];portConstraint=eastwest;rotatable=0;whiteSpace=wrap;html=1;" parent="0bnm-WWBfVlgTxz5dhvm-11" vertex="1">
          <mxGeometry y="120" width="570" height="30" as="geometry" />
        </mxCell>
        <mxCell id="0bnm-WWBfVlgTxz5dhvm-17" value="Generate Insights for employees working as Data Science. {&#39;Job_Family&#39;:&#39;Data Science&#39;}" style="text;strokeColor=none;fillColor=none;align=left;verticalAlign=middle;spacingLeft=4;spacingRight=4;overflow=hidden;points=[[0,0.5],[1,0.5]];portConstraint=eastwest;rotatable=0;whiteSpace=wrap;html=1;" parent="0bnm-WWBfVlgTxz5dhvm-11" vertex="1">
          <mxGeometry y="150" width="570" height="30" as="geometry" />
        </mxCell>
        <mxCell id="0bnm-WWBfVlgTxz5dhvm-14" value="Generate Insights for Data Science employees. {&#39;Job_Family&#39;:&#39;Data Science&#39;}" style="text;strokeColor=none;fillColor=none;align=left;verticalAlign=middle;spacingLeft=4;spacingRight=4;overflow=hidden;points=[[0,0.5],[1,0.5]];portConstraint=eastwest;rotatable=0;whiteSpace=wrap;html=1;" parent="0bnm-WWBfVlgTxz5dhvm-11" vertex="1">
          <mxGeometry y="180" width="570" height="30" as="geometry" />
        </mxCell>
        <mxCell id="0bnm-WWBfVlgTxz5dhvm-33" value="" style="edgeStyle=orthogonalEdgeStyle;rounded=0;orthogonalLoop=1;jettySize=auto;html=1;" parent="1" source="0bnm-WWBfVlgTxz5dhvm-35" target="0bnm-WWBfVlgTxz5dhvm-32" edge="1">
          <mxGeometry relative="1" as="geometry" />
        </mxCell>
        <mxCell id="0bnm-WWBfVlgTxz5dhvm-27" value="Categories&lt;div&gt;Function : &#39;Data &amp;amp; Analytics&#39;&lt;/div&gt;&lt;div&gt;Job Profile: &#39;Data Scientist&#39;,&#39;Expert Data Scientist&#39;&#39;&lt;/div&gt;&lt;div&gt;Job Family: &#39;Data Science&#39;, &#39;Data Analytics &amp;amp; Insights&#39;&lt;/div&gt;" style="whiteSpace=wrap;html=1;" parent="1" vertex="1">
          <mxGeometry x="70" y="580" width="350" height="110" as="geometry" />
        </mxCell>
        <mxCell id="0bnm-WWBfVlgTxz5dhvm-45" value="" style="edgeStyle=orthogonalEdgeStyle;rounded=0;orthogonalLoop=1;jettySize=auto;html=1;" parent="1" source="0bnm-WWBfVlgTxz5dhvm-32" target="0bnm-WWBfVlgTxz5dhvm-44" edge="1">
          <mxGeometry relative="1" as="geometry" />
        </mxCell>
        <mxCell id="0bnm-WWBfVlgTxz5dhvm-32" value="&lt;p style=&quot;font-size: 11px;&quot; class=&quot;MsoNormal&quot;&gt;&lt;font style=&quot;font-size: 11px;&quot;&gt;Your task is to extract specific business information from an input query. This information includes business-level demographics, employee&amp;nbsp;demographics, and work-related details etc..&amp;nbsp;&lt;span style=&quot;background-color: initial;&quot;&gt;Please consider the following categories name, their &lt;/span&gt;&lt;span style=&quot;background-color: initial;&quot;&gt;respective description and their relevant values as a knowledge base for &lt;/span&gt;&lt;span style=&quot;background-color: initial;&quot;&gt;extraction:&lt;/span&gt;&lt;/font&gt;&lt;/p&gt;&lt;p style=&quot;font-size: 11px;&quot; class=&quot;MsoNormal&quot;&gt;&lt;font style=&quot;font-size: 11px;&quot;&gt;{categories}&lt;/font&gt;&lt;/p&gt;&lt;p style=&quot;font-size: 11px;&quot; class=&quot;MsoNormal&quot;&gt;&lt;font style=&quot;font-size: 11px;&quot;&gt;&amp;lt;instructions&amp;gt;&lt;/font&gt;&lt;/p&gt;&lt;font style=&quot;font-size: 11px;&quot;&gt;&lt;br&gt;&lt;/font&gt;&lt;p style=&quot;font-size: 11px;&quot; class=&quot;MsoNormal&quot;&gt;&lt;font style=&quot;font-size: 11px;&quot;&gt;To extract the required details, please follow these&lt;br&gt;instructions carefully:&lt;/font&gt;&lt;/p&gt;&lt;p style=&quot;font-size: 11px;&quot; class=&quot;MsoNormal&quot;&gt;&lt;font style=&quot;font-size: 11px;&quot;&gt;- Start by identifying the specific category name from the&lt;br&gt;options provided above.&lt;/font&gt;&lt;/p&gt;&lt;p style=&quot;font-size: 11px;&quot; class=&quot;MsoNormal&quot;&gt;&lt;font style=&quot;font-size: 11px;&quot;&gt;- Once you have identified the category, from given possible values, selct the one that seems most relevant. Do not change the value text.&lt;/font&gt;&lt;/p&gt;&lt;p style=&quot;font-size: 11px;&quot; class=&quot;MsoNormal&quot;&gt;&lt;font style=&quot;font-size: 11px;&quot;&gt;- It is very important to maintain the same/exact names for&amp;nbsp;the categories and values provided. Do not add any extra information or make any assumptions.&lt;/font&gt;&lt;/p&gt;&lt;p style=&quot;font-size: 11px;&quot; class=&quot;MsoNormal&quot;&gt;&lt;font style=&quot;font-size: 11px;&quot;&gt;- The final output should be in JSON format, with the&amp;nbsp;required information extracted. If no filters are extracted, simply return&lt;br&gt;&#39;{{&#39;None&#39;: &#39;None&#39;}}&#39;.&lt;/font&gt;&lt;/p&gt;&lt;p style=&quot;font-size: 11px;&quot; class=&quot;MsoNormal&quot;&gt;&lt;font style=&quot;font-size: 11px;&quot;&gt;- Below are some sample scenarios that provide a basic&amp;nbsp;understanding of how different categories and values can be captured from the&amp;nbsp;input. The final answer may contain a combination of multiple categories, which can be understood by analyzing multiple samples. Therefore, it is crucial to understand the requirements properly and provide an accurate answer.&lt;/font&gt;&lt;/p&gt;&lt;p style=&quot;font-size: 11px;&quot; class=&quot;MsoNormal&quot;&gt;&lt;font style=&quot;font-size: 11px;&quot;&gt;- Before providing the final answer, validate the details&amp;nbsp;that have been extracted.&lt;/font&gt;&lt;/p&gt;&lt;p style=&quot;font-size: 11px;&quot; class=&quot;MsoNormal&quot;&gt;&lt;font style=&quot;font-size: 11px;&quot;&gt;- User might input abbreviations, do replace them with actual&amp;nbsp;values as mentioned in above values.&lt;/font&gt;&lt;/p&gt;&lt;p style=&quot;font-size: 11px;&quot; class=&quot;MsoNormal&quot;&gt;&lt;font style=&quot;font-size: 11px;&quot;&gt;Please ensure that you follow these instructions precisely to extract the required information accurately.&amp;nbsp;&lt;/font&gt;&lt;/p&gt;&lt;p style=&quot;font-size: 11px;&quot; class=&quot;MsoNormal&quot;&gt;&lt;span style=&quot;background-color: initial;&quot;&gt;&lt;font style=&quot;font-size: 11px;&quot;&gt;&amp;lt;/instructions&amp;gt;&lt;/font&gt;&lt;/span&gt;&lt;/p&gt;&lt;p style=&quot;font-size: 11px;&quot; class=&quot;MsoNormal&quot;&gt;&lt;font style=&quot;font-size: 11px;&quot;&gt;&lt;br&gt;&lt;/font&gt;&lt;/p&gt;&lt;p style=&quot;font-size: 11px;&quot; class=&quot;MsoNormal&quot;&gt;&lt;font style=&quot;font-size: 11px;&quot;&gt;{examples}&lt;/font&gt;&lt;/p&gt;&lt;p style=&quot;font-size: 11px;&quot; class=&quot;MsoNormal&quot;&gt;&lt;font style=&quot;font-size: 11px;&quot;&gt;Query: {input};&lt;/font&gt;&lt;/p&gt;&lt;span style=&quot;font-family: Calibri, sans-serif; font-size: 11px;&quot;&gt;&lt;font style=&quot;font-size: 11px;&quot;&gt;Answer:&amp;nbsp;&lt;/font&gt;&lt;/span&gt;" style="whiteSpace=wrap;html=1;align=left;" parent="1" vertex="1">
          <mxGeometry x="770" y="490" width="980" height="520" as="geometry" />
        </mxCell>
        <mxCell id="0bnm-WWBfVlgTxz5dhvm-41" value="" style="endArrow=classic;startArrow=classic;html=1;rounded=0;exitX=0;exitY=0.5;exitDx=0;exitDy=0;entryX=0.5;entryY=0;entryDx=0;entryDy=0;edgeStyle=orthogonalEdgeStyle;" parent="1" source="0bnm-WWBfVlgTxz5dhvm-3" target="0bnm-WWBfVlgTxz5dhvm-37" edge="1">
          <mxGeometry width="50" height="50" relative="1" as="geometry">
            <mxPoint x="410" y="290" as="sourcePoint" />
            <mxPoint x="460" y="240" as="targetPoint" />
            <Array as="points">
              <mxPoint x="80" y="365" />
              <mxPoint x="80" y="40" />
              <mxPoint x="650" y="40" />
            </Array>
          </mxGeometry>
        </mxCell>
        <mxCell id="0bnm-WWBfVlgTxz5dhvm-43" style="edgeStyle=orthogonalEdgeStyle;rounded=0;orthogonalLoop=1;jettySize=auto;html=1;entryX=0;entryY=0.5;entryDx=0;entryDy=0;" parent="1" source="0bnm-WWBfVlgTxz5dhvm-42" target="0bnm-WWBfVlgTxz5dhvm-3" edge="1">
          <mxGeometry relative="1" as="geometry">
            <Array as="points">
              <mxPoint x="30" y="1085" />
              <mxPoint x="30" y="365" />
            </Array>
          </mxGeometry>
        </mxCell>
        <mxCell id="0bnm-WWBfVlgTxz5dhvm-46" style="edgeStyle=orthogonalEdgeStyle;rounded=0;orthogonalLoop=1;jettySize=auto;html=1;exitX=1;exitY=0.5;exitDx=0;exitDy=0;entryX=0;entryY=0.5;entryDx=0;entryDy=0;" parent="1" source="0bnm-WWBfVlgTxz5dhvm-42" target="0bnm-WWBfVlgTxz5dhvm-44" edge="1">
          <mxGeometry relative="1" as="geometry" />
        </mxCell>
        <mxCell id="0bnm-WWBfVlgTxz5dhvm-42" value="OpenAI Service" style="ellipse;whiteSpace=wrap;html=1;" parent="1" vertex="1">
          <mxGeometry x="160" y="1010" width="150" height="150" as="geometry" />
        </mxCell>
        <mxCell id="0bnm-WWBfVlgTxz5dhvm-44" value="&lt;p style=&quot;&quot; class=&quot;MsoNormal&quot;&gt;&lt;font style=&quot;font-size: 15px;&quot;&gt;Final Output&lt;/font&gt;&lt;/p&gt;" style="whiteSpace=wrap;html=1;align=center;" parent="1" vertex="1">
          <mxGeometry x="910" y="1120" width="300" height="90" as="geometry" />
        </mxCell>
        <mxCell id="qSXW0cZ4mItNUAgYcORs-1" value="" style="edgeStyle=orthogonalEdgeStyle;rounded=0;orthogonalLoop=1;jettySize=auto;html=1;" edge="1" parent="1" source="0bnm-WWBfVlgTxz5dhvm-27" target="0bnm-WWBfVlgTxz5dhvm-35">
          <mxGeometry relative="1" as="geometry">
            <mxPoint x="510" y="639" as="sourcePoint" />
            <mxPoint x="790" y="750" as="targetPoint" />
          </mxGeometry>
        </mxCell>
        <mxCell id="0bnm-WWBfVlgTxz5dhvm-35" value="&lt;span style=&quot;color: rgb(0, 0, 0); font-family: Helvetica; font-size: 12px; font-style: normal; font-variant-ligatures: normal; font-variant-caps: normal; font-weight: 400; letter-spacing: normal; orphans: 2; text-align: center; text-indent: 0px; text-transform: none; widows: 2; word-spacing: 0px; -webkit-text-stroke-width: 0px; white-space: normal; background-color: rgb(251, 251, 251); text-decoration-thickness: initial; text-decoration-style: initial; text-decoration-color: initial; display: inline !important; float: none;&quot;&gt;Prompt Creation&lt;/span&gt;" style="text;whiteSpace=wrap;html=1;" parent="1" vertex="1">
          <mxGeometry x="570" y="680" width="50" height="30" as="geometry" />
        </mxCell>
      </root>
    </mxGraphModel>
  </diagram>
</mxfile>
